# xmcd
#
# Track frame offsets: 
#        150
#        12862
#        25265
#        36943
#        49971
#        62855
#        74378
#        83653
#        95751
#        107424
#        119950
#        131980
#        144882
#        158279
#        170498
#        183517
#        195367
#        207687
#        220507
#        232971
#
# Disc length: 3187 seconds
#
# Revision: 3
# Processed by: cddbd v1.5.2PL0 Copyright (c) Steve Scherf et al.
# Submitted via: ExactAudioCopy v1.1
#
DISCID=1c0c7114
DTITLE=Various Artist - CD05_1944-46
DYEAR=2006
DGENRE=Country
TTITLE0=Foy Willing (1944) - Texas Blues
TTITLE1=Hank Penny (1944)  - I'm Singing The Blues
TTITLE2=Bill Monroe (1945) - Rocky Road Blues
TTITLE3=Curly Williams (1945) - Southern Belle
TTITLE4=Louise Massey (1942) - Squeeze Box Polka
TTITLE5=Hank Penny (1943) - Talkin' 'Bout You
TTITLE6=Gene Autry (1943) - In Old Capistrano
TTITLE7=Ted Daffan (1943) - Born To Lose
TTITLE8=Hank Penny (1943) - Tearstains On Your Letter
TTITLE9=Hank Penny (1945) - Now Ain't You Glad Dear
TTITLE10=Spade Cooley (1946)  - Three Way Boogie
TTITLE11=Jimmy Wyble (1946) - Huntin' Business All The Time
TTITLE12=Ocie Stockard (1946) - O.P.A. Blues
TTITLE13=Boots Woodall (1946) - Rattlesnakin' Daddy
TTITLE14=Ocie Stockard (1946) - Nobody Cares
TTITLE15=Hank Penny (1945) - I'm Counting The Days
TTITLE16=The Delmore Brothers (1946) - Hillbilly Boogie
TTITLE17=Hank Penny (1946) - Steel Guitar Stomp
TTITLE18=The Delmore Brothers (1946) - Boogie Woogie Baby
TTITLE19=W.M. Stepp (1927) - The Way Of The World
EXTD=
EXTT0=
EXTT1=
EXTT2=
EXTT3=
EXTT4=
EXTT5=
EXTT6=
EXTT7=
EXTT8=
EXTT9=
EXTT10=
EXTT11=
EXTT12=
EXTT13=
EXTT14=
EXTT15=
EXTT16=
EXTT17=
EXTT18=
EXTT19=
PLAYORDER=
